<svg xmlns="http://www.w3.org/2000/svg" version="1.1" xmlns:xlink="http://www.w3.org/1999/xlink" xmlns:svgjs="http://svgjs.dev/svgjs" width="100%" height="100%" viewBox="0 0 1000 600"><rect width="1000" height="600" x="0" y="0" fill="#ffffff"/><g><circle r="166.66666666666666" cx="400.3108469645182" cy="422.53298097179584" fill="#4831d4" transform="matrix(0.5350017772438596,0,0,0.5350017772438597,0,73.94410423594331)"/><path d="M413.9364828339692 479.96931980991684L435.75323254966963 484.7737303971288L432.91784269492155 497.53298474349515L367.97953893826093 497.53298474349515L367.97953893826093 489.026815179251L388.4179741412366 480.52064561500674L388.4179741412366 401.1297296820609Q388.4179741412366 384.9837596758566 380.18746747953736 377.89528503898646Q371.9569608178381 370.8068104021163 360.3397384963009 370.8068104021163L360.3397384963009 370.8068104021163Q351.2428627123175 370.8068104021163 341.2008569767514 374.74485186704413Q331.1194708265361 378.72227374662134 325.44869111703997 385.2594225784016L325.44869111703997 385.2594225784016L325.44869111703997 479.96931980991684L345.5720830028214 483.90736127484473L342.7366931480733 497.53298474349515L275.5537057564038 497.53298474349515L275.5537057564038 489.026815179251L300.20584532685234 480.52064561500674L300.20584532685234 371.9094620122961L276.69573778123294 367.38071432762905L275.2780428538589 354.8971228838077L325.44869111703997 348.1236915641318L325.44869111703997 371.3581362072062Q335.09689270611324 359.465250983124 348.4074728575695 353.47942795643365Q361.7574334236749 347.53298534439256 373.6503186477571 347.53298534439256L373.6503186477571 347.53298534439256Q386.4095729941234 347.53298534439256 395.7821116806517 354.77898163985986Q405.11526995253075 361.98559752067786 410.23472385693697 377.0289159167023L410.23472385693697 377.0289159167023Q419.60726254346537 363.71833576524614 433.3510272560636 355.60597034749475Q447.09479196866187 347.53298534439256 460.7204154373123 347.53298534439256L460.7204154373123 347.53298534439256Q478.00841746834567 347.53298534439256 490.1769655949728 360.72542425190096Q502.38489413624916 373.9178631594093 502.38489413624916 401.1297296820609L502.38489413624916 401.1297296820609L502.38489413624916 479.96931980991684L525.3436758767787 484.7737303971288L522.5082860220306 497.53298474349515L456.4673306551902 497.53298474349515L456.4673306551902 489.026815179251L476.8663854435166 480.52064561500674L476.8663854435166 401.1297296820609Q476.8663854435166 384.9837596758566 467.9270313181303 377.89528503898646Q458.98767719274406 370.8068104021163 448.23682399349093 370.8068104021163L448.23682399349093 370.8068104021163Q436.8952645744987 370.8068104021163 428.3890950102545 376.04440555047034Q419.8829254460103 381.28200069882445 413.9364828339692 389.23684445797875L413.9364828339692 389.23684445797875L413.9364828339692 479.96931980991684Z " fill="#ffffff" transform="matrix(0.5350017772438596,0,0,0.5350017772438597,0,73.94410423594331)"/><path d="M723.8898569642831 451.0576451833513L735.4668981196485 453.60710189987583L733.9623007131751 460.3777902290065L699.502840667692 460.3777902290065L699.502840667692 455.8639980095861L710.3484803060217 451.3502057901656L710.3484803060217 409.221478408908Q710.3484803060217 400.6536320664896 705.9809683900085 396.89213855030584Q701.6134564739951 393.13064503412215 695.448786544694 393.13064503412215L695.448786544694 393.13064503412215Q690.6215365322582 393.13064503412215 685.2927540509979 395.22036365422423Q679.9430743835367 397.3309794605273 676.9338795705897 400.79991236989673L676.9338795705897 400.79991236989673L676.9338795705897 451.0576451833513L687.6123417193113 453.1473638034534L686.1077443128378 460.3777902290065L650.4571446538966 460.3777902290065L650.4571446538966 455.8639980095861L663.5387832157355 451.3502057901656L663.5387832157355 393.7157662477507L651.0631630537262 391.31258983463334L650.3108643504895 384.6881818089098L676.9338795705897 381.09386578233426L676.9338795705897 393.42320564093643Q682.0536901898398 387.1122554082282 689.1169391257847 383.9358831056731Q696.2010852479308 380.780407989319 702.512035480639 380.780407989319L702.512035480639 380.780407989319Q709.2827238097697 380.780407989319 714.2562541256126 384.62549025030677Q719.2088872552545 388.44967532509355 721.9255214613872 396.4324004538834L721.9255214613872 396.4324004538834Q726.89905177723 389.36915151793846 734.1921697613863 385.0643311605282Q741.4852877455425 380.780407989319 748.7157141710956 380.780407989319L748.7157141710956 380.780407989319Q757.8895789133437 380.780407989319 764.346809449459 387.7809653666609Q770.8249371717754 394.7815227440028 770.8249371717754 409.221478408908L770.8249371717754 409.221478408908L770.8249371717754 451.0576451833513L783.0079967269704 453.60710189987583L781.503399320497 460.3777902290065L746.4588180613854 460.3777902290065L746.4588180613854 455.8639980095861L757.2835605135141 451.3502057901656L757.2835605135141 409.221478408908Q757.2835605135141 400.6536320664896 752.5398992458823 396.89213855030584Q747.7962379782507 393.13064503412215 742.0913061453721 393.13064503412215L742.0913061453721 393.13064503412215Q736.0729165194782 393.13064503412215 731.5591243000576 395.9099707988579Q727.0453320806372 398.68929656359364 723.8898569642831 402.9105281761998L723.8898569642831 402.9105281761998L723.8898569642831 451.0576451833513ZM824.8441635014137 380.63412768591184L824.8441635014137 380.63412768591184Q835.0628875537128 380.63412768591184 842.5231830274772 384.01947185047715Q849.9625813150406 387.4048160150425 854.9361116308835 393.13064503412215Q859.8887447605254 398.8355768670008 862.3128183598437 405.98241454774984Q864.715994772961 413.1292522284989 864.715994772961 420.6522392608663L864.715994772961 420.6522392608663Q864.715994772961 428.32150659664086 862.2292296150397 435.63552176699807Q859.7424644571182 442.9286397511543 854.9988031894866 448.8007490736411Q850.2760391080558 454.65196120992687 843.2754817307139 458.1208941192963Q836.274924353372 461.5898270286657 827.2473399145312 461.5898270286657L827.2473399145312 461.5898270286657Q817.1748961656392 461.5898270286657 809.6519091332717 458.2044828641004Q802.1289221009043 454.8191386995351 797.1553917850614 449.0933096804554Q792.1818614692186 443.36748066137574 789.7786850561012 436.2206429806267Q787.3755086429837 429.0738052998776 787.3755086429837 421.5508182675102L787.3755086429837 421.5508182675102Q787.3755086429837 413.88155093173566 789.8622738009052 406.58843294757946Q792.3490389588267 399.29531496342327 797.0718030402574 393.42320564093643Q801.815464307889 387.55109631844965 808.8160216852309 384.10306059528125Q815.8165790625728 380.63412768591184 824.8441635014137 380.63412768591184ZM827.1010596111239 453.31454129306155L827.1010596111239 453.31454129306155Q835.230065043321 453.31454129306155 840.1826981729629 448.8007490736411Q845.1562284888058 444.28695685422065 847.413124598516 437.2028107320746Q849.6700207082263 430.13956179612967 849.6700207082263 422.30311697074694L849.6700207082263 422.30311697074694Q849.6700207082263 414.0278312351428 847.413124598516 406.3585638993682Q845.1562284888058 398.68929656359364 839.8065488213444 393.7993549925548Q834.4777663400843 388.909413421516 824.9904438048209 388.909413421516L824.9904438048209 388.909413421516Q817.007718676031 388.909413421516 811.9714968015851 393.42320564093643Q806.9352749271391 397.9369978603569 804.6783788174289 405.0002467963019Q802.4214827077186 412.08439291844786 802.4214827077186 419.8999405576296L802.4214827077186 419.8999405576296Q802.4214827077186 428.1752262932338 804.6783788174289 435.8444936290083Q806.9352749271391 443.5346581509839 812.2849545946003 448.4245997220227Q817.6137370758606 453.31454129306155 827.1010596111239 453.31454129306155ZM897.5036799223625 347.53298474349515L897.5036799223625 393.42320564093643Q902.6234905416125 387.2585357116354 910.0001972705727 384.01947185047715Q917.376903999533 380.780407989319 923.5415739288342 380.780407989319L923.5415739288342 380.780407989319Q934.3663163809629 380.780407989319 940.3220144482536 387.4048160150425Q946.2568153293437 394.02922404076605 946.2568153293437 408.4691797056713L946.2568153293437 408.4691797056713L946.4030956327507 451.0576451833513L958.4398748845385 453.60710189987583L956.935277478065 460.3777902290065L921.284677819124 460.3777902290065L921.284677819124 455.8639980095861L932.8617189744893 451.3502057901656L932.8617189744893 411.47837451861824Q932.8617189744893 403.95538748625086 931.2944300094127 399.96402492185587Q929.7062438581352 395.972662357461 926.467179996977 394.5516536957916Q923.2490133220199 393.13064503412215 918.4217633095841 393.13064503412215L918.4217633095841 393.13064503412215Q912.4033736836902 393.13064503412215 906.4685728026003 395.22036365422423Q900.5128747353094 397.3309794605273 897.5036799223625 400.79991236989673L897.5036799223625 400.79991236989673L897.5036799223625 451.0576451833513L908.7881604709137 453.1473638034534L907.2835630644402 460.3777902290065L870.734384398855 460.3777902290065L870.734384398855 455.8639980095861L883.9623032641011 451.3502057901656L883.9623032641011 359.7160442986902L871.4866831020918 357.3128678855728L870.734384398855 351.1481979562717L897.5036799223625 347.53298474349515ZM973.047008039052 359.11002589886056L973.047008039052 359.11002589886056Q976.954781858643 352.506515059338 983.5791898843663 348.74502154315434L983.5791898843663 348.74502154315434Q990.2035979100899 352.19305726632274 993.6516336332584 358.8174652920463L993.6516336332584 358.8174652920463Q989.8901401170747 365.2955930143627 983.119451787944 369.20336683395357L983.119451787944 369.20336683395357Q976.4950437622203 365.73443392458415 973.047008039052 359.11002589886056ZM991.5410178269553 381.09386578233426L991.5410178269553 451.0576451833513L1002.8254983755064 453.1473638034534L1001.3209009690329 460.3777902290065L964.7717223034479 460.3777902290065L964.7717223034479 455.8639980095861L977.9996411686939 451.3502057901656L977.9996411686939 393.13064503412215L965.8165816134989 390.8737489244119L965.0642829102621 384.6881818089098L991.5410178269553 381.09386578233426ZM1058.8090602080406 446.3766754743227L1061.6719747175805 449.9918886870993Q1058.203041808211 455.4042599131636 1051.5786337824875 458.78960407772894Q1044.954225756764 462.1749482422943 1038.1835374276334 462.1749482422943L1038.1835374276334 462.1749482422943Q1031.5800265881107 462.1749482422943 1027.8812246305301 459.39562247755856Q1024.2033198591505 456.6162967128228 1022.698722452677 451.8099438865881Q1021.1941250462035 446.98269387415235 1021.1941250462035 440.9643042482584L1021.1941250462035 440.9643042482584L1021.1941250462035 390.56029113139664L1009.3036260978229 390.56029113139664L1009.3036260978229 385.2942002087394L1021.9464237494403 380.780407989319L1027.2125146720975 364.0835562147035L1034.735501704465 364.0835562147035L1034.735501704465 382.1387250923853L1058.8090602080406 382.1387250923853L1058.8090602080406 390.4140108279895L1034.735501704465 390.4140108279895L1034.735501704465 437.3490910354818Q1034.735501704465 445.62437677108596 1036.2400991109384 448.63357158403295Q1037.7446965174117 451.64276639697994 1043.4496283502906 451.64276639697994L1043.4496283502906 451.64276639697994Q1046.9185612596598 451.64276639697994 1050.5337744724366 450.45162678352176Q1054.1489876852131 449.2395899838625 1058.8090602080406 446.3766754743227L1058.8090602080406 446.3766754743227ZM1127.4145225059915 383.18358440243634L1127.4145225059915 403.34936908642123L1119.5989748668096 404.70768618948756L1115.5240235576107 393.2769253375293Q1114.918005157781 393.13064503412215 1114.0194261511372 393.13064503412215Q1113.1208471444934 393.13064503412215 1112.5148287446636 393.13064503412215L1112.5148287446636 393.13064503412215Q1107.708475918429 393.13064503412215 1102.4423849957716 395.22036365422423Q1097.1762940731146 397.3309794605273 1094.1670992601676 400.79991236989673L1094.1670992601676 400.79991236989673L1094.1670992601676 451.0576451833513L1108.0010365252433 453.1473638034534L1106.4964391187698 460.3777902290065L1067.6903643434744 460.3777902290065L1067.6903643434744 455.8639980095861L1080.7720029053135 451.3502057901656L1080.7720029053135 393.7157662477507L1068.275485557103 391.31258983463334L1067.5231868538663 384.6881818089098L1094.1670992601676 381.09386578233426L1094.1670992601676 393.42320564093643Q1099.2869098794176 388.0108344148721 1105.0754304571003 384.54190150550266Q1110.863951034783 381.09386578233426 1117.4883590605066 381.09386578233426L1117.4883590605066 381.09386578233426Q1122.4409921901486 381.09386578233426 1127.4145225059915 383.18358440243634L1127.4145225059915 383.18358440243634ZM1203.5429718363093 460.3777902290065L1180.681450132393 460.3777902290065L1180.681450132393 448.1947306738115Q1177.6722553194459 451.8099438865881 1173.0748743552213 454.8191386995351Q1168.4983905771978 457.828333512482 1163.4412715165508 459.70908027057385Q1158.405049642105 461.5898270286657 1154.0375377260916 461.5898270286657L1154.0375377260916 461.5898270286657Q1146.0757097835028 461.5898270286657 1140.057320157609 456.4700164094157Q1134.0389305317149 451.3502057901656 1134.0389305317149 441.8628832549023L1134.0389305317149 441.8628832549023Q1134.0389305317149 434.33989622253483 1137.8631156065017 429.61713214110415Q1141.7081978674896 424.8734708734725 1151.4880810095672 422.30311697074694L1151.4880810095672 422.30311697074694Q1158.8647877385274 420.359678654052 1165.6981676262612 419.0849502957898Q1172.5524447001958 417.7893247513265 1180.681450132393 416.8907457446826L1180.681450132393 416.8907457446826L1180.681450132393 404.5614058860804Q1180.681450132393 396.13983984706914 1176.1676579129726 392.5873181928956Q1171.653865693552 389.0556937249231 1165.3220182746427 389.0556937249231L1165.3220182746427 389.0556937249231Q1161.8739825514745 389.0556937249231 1158.2587693386977 389.5154318213456Q1154.6435561259214 389.954272731567 1151.195520402753 391.1663095312262L1151.195520402753 391.1663095312262L1146.9742887901466 408.32289940226417L1139.158741150965 406.9645822991978L1139.158741150965 387.4048160150425Q1145.0099532872507 384.855359298518 1151.7179500577784 382.80743505081796Q1158.405049642105 380.780407989319 1166.0743169778796 380.780407989319L1166.0743169778796 380.780407989319Q1173.9107618032622 380.780407989319 1180.3053007807746 382.9746125404261Q1186.699839758287 385.1479199053323 1190.4613332744707 390.4140108279895Q1194.2228267906544 395.68010175064666 1194.2228267906544 404.70768618948756L1194.2228267906544 404.70768618948756L1194.2228267906544 450.8904676937432L1205.047569242783 453.4608215964687L1203.5429718363093 460.3777902290065ZM1149.0849045964496 440.6717436414441L1149.0849045964496 440.6717436414441Q1149.0849045964496 447.73499257738905 1152.470248761015 449.9291971284962Q1155.8555929255804 452.10250449340236 1160.3693851450007 452.10250449340236L1160.3693851450007 452.10250449340236Q1163.9845983577775 452.10250449340236 1168.0386524807755 450.30534648011457Q1172.0927066037734 448.4872912806258 1175.4780507683388 445.70796551589007Q1178.8633949329042 442.9286397511543 1180.681450132393 440.35828584842875L1180.681450132393 440.35828584842875L1180.681450132393 423.22259316359185Q1175.854200119957 423.80771437722046 1171.0478472937225 424.49732152185413Q1166.2414944674877 425.1660314802868 1161.414244455052 426.5243485833531L1161.414244455052 426.5243485833531Q1154.350995519107 428.48868408624907 1151.7179500577784 432.25017760243276Q1149.0849045964496 436.0116711186165 1149.0849045964496 440.6717436414441ZM1214.6811720814535 456.76257701622995L1214.6811720814535 436.59679233224506L1222.4967197206352 435.25937241537974L1226.5716710298343 450.1381689905064Q1230.4794448494251 451.8099438865881 1233.488639662372 452.70852289323193Q1236.497834475319 453.60710189987583 1240.8653463913324 453.60710189987583L1240.8653463913324 453.60710189987583Q1247.6360347204632 453.60710189987583 1251.9199578916723 450.5979070869289Q1256.2038810628815 447.5887122739819 1256.3501613662886 440.81802394485123L1256.3501613662886 440.81802394485123Q1256.517338855897 436.4505120288379 1253.6544243463568 433.5875975192981Q1250.791509836817 430.7455801959593 1246.1941288725925 428.69765594825924Q1241.617645094569 426.67062888676026 1236.497834475319 424.56001308045717Q1231.378023856069 422.4702944603551 1226.7179513332414 419.75366025422244Q1222.0578788104137 417.03702604808973 1219.11137555607 412.89938318028766Q1216.1857694879268 408.7617403124856 1216.1857694879268 402.45079007977733L1216.1857694879268 402.45079007977733Q1216.1857694879268 396.57868075729056 1218.9650952526626 392.52462663429253Q1221.7444210173985 388.44967532509355 1226.425390726427 385.90021860856905Q1231.0854632492546 383.3507618920445 1236.6441147787264 382.2223138371894Q1242.2236634943988 381.09386578233426 1247.6360347204632 381.09386578233426L1247.6360347204632 381.09386578233426Q1254.0932652565784 381.09386578233426 1259.4429449240397 382.4312856991996Q1264.792624591501 383.7896028022659 1267.0495207012113 386.0464989119762L1267.0495207012113 386.0464989119762L1267.0495207012113 404.85396649289476L1259.2130758758285 406.2122835959611L1255.1590217528305 390.8737489244119Q1252.588667850105 390.12145022117517 1250.4989492300028 389.74530086955684Q1248.3883334236998 389.36915151793846 1244.773120210923 389.36915151793846L1244.773120210923 389.36915151793846Q1239.0472911918437 389.36915151793846 1234.6170877172272 391.6260476276487Q1230.1868842426106 393.8829437373589 1230.1868842426106 400.1938939700671L1230.1868842426106 400.1938939700671Q1230.1868842426106 404.70768618948756 1233.1124903107539 407.71688100243455Q1236.0380963788966 410.72607581538153 1240.635477343121 412.89938318028766Q1245.2328583073456 415.09358773139485 1250.3317717403947 417.12061479289383Q1255.4515823596448 419.1476418543928 1260.0489633238692 421.8642760605255Q1264.6254471018929 424.56001308045717 1267.5719503562368 428.5513756448521Q1270.4975564243796 432.54273820924703 1270.4975564243796 438.561127835141L1270.4975564243796 438.561127835141Q1270.4975564243796 447.4424319705748 1266.2136332531704 452.5622425898248Q1261.9297100819613 457.66115602287385 1255.1590217528305 459.77177182917694Q1248.3883334236998 461.88238763548003 1240.7190660879253 461.88238763548003L1240.7190660879253 461.88238763548003Q1233.342359358965 461.88238763548003 1226.425390726427 460.3777902290065Q1219.487524907688 458.87319282253304 1214.6811720814535 456.76257701622995L1214.6811720814535 456.76257701622995ZM1328.8842946700313 446.3766754743227L1331.7472091795712 449.9918886870993Q1328.2782762702016 455.4042599131636 1321.6538682444782 458.78960407772894Q1315.0294602187546 462.1749482422943 1308.2587718896239 462.1749482422943L1308.2587718896239 462.1749482422943Q1301.6552610501012 462.1749482422943 1297.9564590925206 459.39562247755856Q1294.2785543211412 456.6162967128228 1292.7739569146675 451.8099438865881Q1291.2693595081942 446.98269387415235 1291.2693595081942 440.9643042482584L1291.2693595081942 440.9643042482584L1291.2693595081942 390.56029113139664L1279.3788605598133 390.56029113139664L1279.3788605598133 385.2942002087394L1292.0216582114308 380.780407989319L1297.287749134088 364.0835562147035L1304.8107361664556 364.0835562147035L1304.8107361664556 382.1387250923853L1328.8842946700313 382.1387250923853L1328.8842946700313 390.4140108279895L1304.8107361664556 390.4140108279895L1304.8107361664556 437.3490910354818Q1304.8107361664556 445.62437677108596 1306.315333572929 448.63357158403295Q1307.8199309794024 451.64276639697994 1313.5248628122808 451.64276639697994L1313.5248628122808 451.64276639697994Q1316.9937957216505 451.64276639697994 1320.609008934427 450.45162678352176Q1324.2242221472036 449.2395899838625 1328.8842946700313 446.3766754743227L1328.8842946700313 446.3766754743227ZM1373.7087590712204 380.63412768591184L1373.7087590712204 380.63412768591184Q1383.9483803097205 380.63412768591184 1391.387778597284 384.01947185047715Q1398.8480740710484 387.4048160150425 1403.80070720069 393.13064503412215Q1408.774237516533 398.8355768670008 1411.1774139296504 405.98241454774984Q1413.5805903427677 413.1292522284989 1413.5805903427677 420.6522392608663L1413.5805903427677 420.6522392608663Q1413.5805903427677 428.32150659664086 1411.1147223710475 435.63552176699807Q1408.6279572131261 442.9286397511543 1403.8842959454942 448.8007490736411Q1399.1406346778626 454.65196120992687 1392.1400773005207 458.1208941192963Q1385.1604171093798 461.5898270286657 1376.1328326705388 461.5898270286657L1376.1328326705388 461.5898270286657Q1366.0394917354458 461.5898270286657 1358.5165047030787 458.2044828641004Q1350.9935176707108 454.8191386995351 1346.040884541069 449.0933096804554Q1341.0673542252262 443.36748066137574 1338.6641778121088 436.2206429806267Q1336.2610013989915 429.0738052998776 1336.2610013989915 421.5508182675102L1336.2610013989915 421.5508182675102Q1336.2610013989915 413.88155093173566 1338.726869370712 406.58843294757946Q1341.2136345286335 399.29531496342327 1345.957295796265 393.42320564093643Q1350.7009570638968 387.55109631844965 1357.7015144412387 384.10306059528125Q1364.6811746323797 380.63412768591184 1373.7087590712204 380.63412768591184ZM1375.9656551809308 453.31454129306155L1375.9656551809308 453.31454129306155Q1384.0946606131279 453.31454129306155 1389.0681909289706 448.8007490736411Q1394.0208240586126 444.28695685422065 1396.2777201683227 437.2028107320746Q1398.534616278033 430.13956179612967 1398.534616278033 422.30311697074694L1398.534616278033 422.30311697074694Q1398.534616278033 414.0278312351428 1396.2777201683227 406.3585638993682Q1394.0208240586126 398.68929656359364 1388.6920415773523 393.7993549925548Q1383.342361909891 388.909413421516 1373.8759365608284 388.909413421516L1373.8759365608284 388.909413421516Q1365.8932114320387 388.909413421516 1360.856989557593 393.42320564093643Q1355.8207676831466 397.9369978603569 1353.5638715734367 405.0002467963019Q1351.3069754637263 412.08439291844786 1351.3069754637263 419.8999405576296L1351.3069754637263 419.8999405576296Q1351.3069754637263 428.1752262932338 1353.5638715734367 435.8444936290083Q1355.8207676831466 443.5346581509839 1361.1495501644072 448.4245997220227Q1366.4992298318684 453.31454129306155 1375.9656551809308 453.31454129306155ZM1459.470811240209 436.15795142202364L1459.470811240209 436.15795142202364Q1457.0676348270918 436.15795142202364 1454.6644584139744 435.9280823738124Q1452.2612820008571 435.69821332560116 1449.8581055877396 435.09219492577154L1449.8581055877396 435.09219492577154Q1447.2877516850142 437.05653042866754 1445.4905936717264 439.60598714519205Q1443.6725384722376 442.17634104791756 1443.6725384722376 445.0392555574574L1443.6725384722376 445.0392555574574Q1443.6725384722376 447.5887122739819 1446.096612071556 449.3231787286666Q1448.4997884846732 451.0576451833513 1453.4524216143154 451.20392548675846L1453.4524216143154 451.20392548675846L1481.747211730497 451.20392548675846Q1491.3808145691678 451.49648609357274 1495.5184574369696 456.0938670577973Q1499.6561003047718 460.67035083582084 1499.6561003047718 467.00219825473005L1499.6561003047718 467.00219825473005Q1499.6561003047718 474.2117274940822 1495.664737740377 479.93755651316184Q1491.6733751759818 485.6633855322415 1485.1325558950625 489.5711593518323Q1478.591736614143 493.4789331714232 1470.6090114853532 495.50596023292223Q1462.6471835427642 497.5329872944212 1454.6644584139744 497.5329872944212L1454.6644584139744 497.5329872944212Q1441.123081755713 497.5329872944212 1432.931384764913 492.6430457233824Q1424.7187905879118 487.75310415234355 1424.7187905879118 477.5343801000445L1424.7187905879118 477.5343801000445Q1424.7187905879118 471.8085510809648 1428.2504150558843 467.52462790975557Q1431.8029367100578 463.24070473854636 1437.8213263359517 459.3329309189555L1437.8213263359517 459.3329309189555Q1431.8029367100578 455.11169930634935 1431.8029367100578 447.8812728807962L1431.8029367100578 447.8812728807962Q1431.8029367100578 443.9734990612053 1434.5822624747934 439.7731646348002Q1437.3615882395293 435.551933022194 1442.4813988587794 432.54273820924703L1442.4813988587794 432.54273820924703Q1435.8569908330558 429.5335433963001 1431.6357592204497 423.9748918668286Q1427.4354247940446 418.3953431511561 1427.4354247940446 409.3677587123152L1427.4354247940446 409.3677587123152Q1427.4354247940446 399.14903466001607 1431.8029367100578 392.81718724110686Q1436.1495514398703 386.5062370083986 1443.4635666102272 383.5597337540547Q1450.7566845943834 380.63412768591184 1459.3245309368021 380.63412768591184L1459.3245309368021 380.63412768591184Q1465.1966402592889 380.63412768591184 1470.379142437142 382.1387250923853Q1475.582541801196 383.64332249885877 1479.490315620787 386.7987976152129L1479.490315620787 386.7987976152129Q1481.60093142709 386.7987976152129 1485.8012658534951 386.56892856700165Q1490.0224974661014 386.3599567049915 1494.3900093821144 386.0464989119762L1494.3900093821144 386.0464989119762Q1496.939466098639 385.90021860856905 1499.5725115599676 385.6703495603578Q1502.2055570212963 385.44048051214656 1505.0684715308362 385.2942002087394L1505.0684715308362 385.2942002087394L1505.0684715308362 395.68010175064666L1486.2610039499177 395.22036365422423Q1487.765601356391 398.2295584671712 1488.3716197562208 401.7820801213447Q1488.9776381560503 405.3137045893172 1488.9776381560503 409.3677587123152L1488.9776381560503 409.3677587123152Q1488.9776381560503 419.2939221578 1484.756406543444 425.1660314802868Q1480.535174930838 431.03814080277357 1473.7644866017072 433.5875975192981Q1466.9937982725764 436.15795142202364 1459.470811240209 436.15795142202364ZM1459.7842690332245 427.88266568641944L1459.7842690332245 427.88266568641944Q1467.307256065592 427.88266568641944 1470.6090114853532 422.6165747637623Q1473.9316640913155 417.3504838411051 1473.9316640913155 409.3677587123152L1473.9316640913155 409.3677587123152Q1473.9316640913155 400.94619267330387 1470.1701705751316 394.7815227440028Q1466.408677058948 388.6168528147017 1458.279671626751 388.6168528147017L1458.279671626751 388.6168528147017Q1450.4432268013684 388.6168528147017 1446.3891726783702 394.32178464758033Q1442.3351185553724 400.04761366665997 1442.3351185553724 408.92891780209374L1442.3351185553724 408.92891780209374Q1442.3351185553724 417.03702604808973 1446.4727614231742 422.4702944603551Q1450.6104042909765 427.88266568641944 1459.7842690332245 427.88266568641944ZM1474.5167853049438 463.9930034417831L1456.6287939168703 463.9930034417831Q1448.9386293948946 463.9930034417831 1443.5262581688303 462.02866793888717L1443.5262581688303 462.02866793888717Q1438.4064475495802 468.0470575647811 1438.4064475495802 473.45942879084544L1438.4064475495802 473.45942879084544Q1438.4064475495802 482.19445262287206 1444.8009865270926 485.4962080426333Q1451.195525504605 488.8188606485956 1461.142586136291 488.8188606485956L1461.142586136291 488.8188606485956Q1468.205835072236 488.8188606485956 1474.6839627945521 486.5619645388854Q1481.1411933306676 484.30506842917515 1485.2161446398666 480.45998616818736Q1489.2701987628643 476.6358010934006 1489.2701987628643 472.26828917738726L1489.2701987628643 472.26828917738726Q1489.2701987628643 467.90077726137395 1486.2610039499177 465.936441758478Q1483.2518091369707 463.9930034417831 1474.5167853049438 463.9930034417831L1474.5167853049438 463.9930034417831ZM1521.7653233054516 359.11002589886056L1521.7653233054516 359.11002589886056Q1525.6730971250424 352.506515059338 1532.297505150766 348.74502154315434L1532.297505150766 348.74502154315434Q1538.9219131764896 352.19305726632274 1542.3908460858588 358.8174652920463L1542.3908460858588 358.8174652920463Q1538.6293525696751 365.2955930143627 1531.8586642405444 369.20336683395357L1531.8586642405444 369.20336683395357Q1525.234256214821 365.73443392458415 1521.7653233054516 359.11002589886056ZM1540.2802302795558 381.09386578233426L1540.2802302795558 451.0576451833513L1551.5647108281069 453.1473638034534L1550.0601134216336 460.3777902290065L1513.4900375698473 460.3777902290065L1513.4900375698473 455.8639980095861L1526.7388536212943 451.3502057901656L1526.7388536212943 393.13064503412215L1514.5557940660995 390.8737489244119L1513.8034953628628 384.6881818089098L1540.2802302795558 381.09386578233426ZM1618.2058376231616 407.5706006990274L1618.2058376231616 407.5706006990274Q1612.500905790283 412.98297192509176 1605.416759668137 415.53242864161626Q1598.3535107321923 418.1027825443418 1591.5828224030615 418.1027825443418L1591.5828224030615 418.1027825443418Q1583.3075366674575 418.1027825443418 1576.0771102419044 414.8637186831836Q1568.867581002552 411.6246548220254 1564.3537887831317 404.9375552376988Q1559.839996563711 398.2295584671712 1559.839996563711 388.0108344148721L1559.839996563711 388.0108344148721Q1559.839996563711 378.6697921830159 1564.5000690865388 370.70796424042703Q1569.1601416093663 362.72523911163717 1577.2891470415634 357.83529754059833Q1585.4181524737605 352.9453559695595 1595.6368765260595 352.9453559695595L1595.6368765260595 352.9453559695595Q1614.444344106978 352.9453559695595 1624.9765259522924 364.6895746145331Q1635.5087077976068 376.41289607330566 1635.5087077976068 397.9369978603569L1635.5087077976068 397.9369978603569Q1635.5087077976068 411.0186364221958 1631.8308030262272 421.40453796410304Q1628.1528982548475 431.79043950601033 1621.8210508359384 439.54329558658895Q1615.51010060323 447.29615166716763 1607.6109642192444 452.47865384502074Q1599.7118278352586 457.66115602287385 1591.2902617962473 460.14792118079527Q1582.847798571035 462.63468633871673 1574.885970628446 462.4884060353096L1574.885970628446 462.4884060353096L1572.1693364223133 455.717717706179Q1580.1520615511033 455.11169930634935 1588.2810669833002 452.10250449340236Q1596.3891752292961 449.0933096804554 1603.1598635584269 443.36748066137574Q1609.9305518875576 437.6625488284971 1614.0681947553596 428.78124469306334Q1618.2058376231616 419.8999405576296 1618.2058376231616 407.5706006990274ZM1576.3905680349194 386.65251731180575L1576.3905680349194 386.65251731180575Q1576.3905680349194 397.79071755694974 1582.7851070124318 403.4956493898284Q1589.1796459899442 409.221478408908 1598.060950125378 409.221478408908L1598.060950125378 409.221478408908Q1603.4733213514423 409.221478408908 1608.9692813223105 406.88099355439374Q1614.444344106978 404.5614058860804 1618.9581363263985 400.1938939700671L1618.9581363263985 400.1938939700671Q1618.9581363263985 388.44967532509355 1616.408679609874 379.65195993446383Q1613.8592228933494 370.85424454383417 1608.7394122740995 365.96430297279534Q1603.6196016548492 361.0743614017565 1595.8040540156676 361.0743614017565L1595.8040540156676 361.0743614017565Q1586.1704511769972 361.0743614017565 1581.2805096059583 368.30478782730967Q1576.3905680349194 375.51431706666176 1576.3905680349194 386.65251731180575Z " fill="#4831d4" transform="matrix(0.5350017772438596,0,0,0.5350017772438597,0,73.94410423594331)"/></g></svg>